<svg width="196" height="127" viewBox="0 0 196 127" fill="none" xmlns="http://www.w3.org/2000/svg">
<g clip-path="url(#clip0_318_1588)">
<path d="M140.719 120.687C140.719 123.273 138.75 125.419 136.175 125.847V125.864H136.07C135.795 125.905 135.517 125.925 135.24 125.925L76.1147 125.968C75.837 125.968 75.5596 125.948 75.2849 125.908H75.1792V125.89C72.6082 125.462 70.65 123.324 70.6543 120.738L70.85 13.7747C70.85 10.8841 73.3081 8.53938 76.329 8.53653L135.454 8.49377C138.475 8.49377 140.919 10.8328 140.914 13.7234L140.88 32.4784V32.4869" fill="#105E63"/>
<path d="M137.588 13.7263L137.602 32.4812L137.665 120.683C137.666 121.915 137.231 123.109 136.437 124.052C135.642 124.996 134.54 125.63 133.323 125.841V125.86H133.222C132.958 125.9 132.692 125.92 132.426 125.92L75.742 125.961C75.4756 125.961 75.2097 125.941 74.9464 125.901H74.845V125.884C73.6279 125.674 72.5242 125.042 71.7283 124.099C70.9324 123.157 70.4954 121.964 70.4943 120.731L70.4172 13.7676C70.4165 13.0803 70.5514 12.3996 70.8145 11.7643C71.0775 11.1291 71.4633 10.5518 71.95 10.0655C72.4367 9.57915 73.0146 9.19329 73.6508 8.92996C74.287 8.66663 74.969 8.53099 75.6577 8.53081L132.34 8.48947C133.029 8.48891 133.712 8.62398 134.349 8.88696C134.986 9.14993 135.565 9.53564 136.052 10.022C136.54 10.5084 136.926 11.086 137.19 11.7216C137.453 12.3572 137.588 13.0384 137.588 13.7263Z" fill="#1CC98A"/>
<path d="M137.602 32.4883L137.665 120.69C137.666 121.922 137.231 123.116 136.437 124.059C135.642 125.003 134.54 125.637 133.323 125.848V125.867H133.221C132.958 125.907 132.692 125.927 132.426 125.927L91.8518 125.957C137.545 120.619 137.602 33.4163 137.602 32.4883Z" fill="#14A671"/>
<path d="M133.818 109.447C133.818 110.068 133.571 110.663 133.132 111.103C132.692 111.542 132.095 111.789 131.473 111.79L94.397 111.817L76.666 111.83C76.0434 111.83 75.4462 111.584 75.0057 111.145C74.5651 110.706 74.3171 110.111 74.3164 109.489L74.3092 98.4785L74.2978 84.6767V79.9017V75.1567L74.2907 65.6067L74.2578 14.9336C74.2578 14.3126 74.5048 13.717 74.9446 13.2776C75.3843 12.8383 75.9808 12.591 76.6031 12.5903L127.451 12.5532H131.405C132.027 12.5532 132.624 12.7997 133.064 13.2386C133.504 13.6774 133.752 14.2727 133.753 14.8937V15.8216V20.5652V25.3402L133.763 39.142L133.787 72.5041L133.818 109.447Z" fill="white"/>
<path d="M112.782 16.5342C112.782 16.8327 112.663 17.1186 112.451 17.3296C112.24 17.5407 111.953 17.6595 111.654 17.6603L96.3569 17.6717C96.0576 17.6717 95.7706 17.5531 95.559 17.3419C95.3474 17.1307 95.2285 16.8443 95.2285 16.5457C95.2285 16.247 95.3474 15.9606 95.559 15.7494C95.7706 15.5382 96.0576 15.4196 96.3569 15.4196L111.654 15.4082C111.953 15.4086 112.24 15.5273 112.452 15.7384C112.663 15.9495 112.782 16.2357 112.782 16.5342Z" fill="#1CC98A"/>
<path d="M112.782 16.5343C112.782 16.8327 112.662 17.1186 112.451 17.3297C112.24 17.5407 111.953 17.6595 111.654 17.6603L98.9233 17.6703C106.779 17.5962 107.283 15.4111 107.283 15.4111H111.653C111.951 15.4111 112.238 15.5293 112.45 15.7398C112.662 15.9503 112.781 16.236 112.782 16.5343Z" fill="#14A671"/>
<path d="M133.796 72.504L94.3971 111.817L76.666 111.83C76.0435 111.83 75.4463 111.584 75.0057 111.145C74.5651 110.706 74.3172 110.111 74.3164 109.489L74.3093 98.4785L133.767 39.1419L133.796 72.504Z" fill="#F8F6F4"/>
<path d="M133.754 15.8215L74.2965 75.1566L74.2893 65.6067L127.452 12.5518H131.406C132.028 12.5518 132.625 12.7983 133.065 13.2371C133.506 13.6759 133.753 14.2712 133.754 14.8922V15.8215Z" fill="#F8F6F4"/>
<path d="M133.761 25.3402L74.3022 84.6767L74.2993 79.9017L133.757 20.5652L133.761 25.3402Z" fill="#F8F6F4"/>
<path d="M74.5777 111.58C74.2921 111.3 74.0653 110.966 73.9106 110.598C73.7558 110.229 73.6763 109.833 73.6765 109.434L73.6079 14.878C73.6087 14.1014 73.9182 13.3568 74.4685 12.8076C75.0187 12.2585 75.7649 11.9496 76.5431 11.9489L131.35 11.9104C132.157 11.913 132.93 12.2335 133.501 12.8021C134.072 13.3707 134.395 14.1413 134.4 14.9464L134.468 109.501C134.468 110.277 134.159 111.022 133.609 111.571C133.06 112.12 132.314 112.43 131.536 112.431L76.7274 112.47C76.3279 112.471 75.9323 112.393 75.5633 112.24C75.1944 112.087 74.8594 111.863 74.5777 111.58ZM76.6545 13.2303C76.1881 13.231 75.741 13.4166 75.4116 13.7461C75.0821 14.0757 74.8973 14.5222 74.8977 14.9877L74.9662 109.544C74.9645 109.76 75.006 109.974 75.0881 110.175C75.1703 110.375 75.2915 110.557 75.4448 110.709C75.598 110.862 75.7803 110.983 75.9808 111.065C76.1814 111.147 76.3963 111.189 76.6131 111.187L131.42 111.147C131.887 111.146 132.334 110.961 132.663 110.631C132.993 110.302 133.177 109.855 133.177 109.39L133.104 14.8352C133.106 14.6189 133.065 14.4044 132.982 14.2043C132.9 14.0041 132.779 13.8223 132.626 13.6693C132.472 13.5164 132.29 13.3954 132.09 13.3134C131.889 13.2314 131.674 13.1901 131.457 13.1918L76.6545 13.2303Z" fill="#0C5156"/>
<path d="M89.6594 101.946H36.5505C34.3209 101.946 32.1885 100.138 31.7943 97.9126L20.4978 33.9779C20.3049 32.8818 20.5549 31.8526 21.2033 31.0815C21.8518 30.3104 22.7816 29.9099 23.8571 29.9099H76.9717C79.2013 29.9099 81.3352 31.7201 81.728 33.9437L93.0245 97.8798C93.2188 98.9759 92.9674 100.004 92.3189 100.775C91.6705 101.546 90.7364 101.946 89.6594 101.946ZM23.8529 30.108C22.8359 30.108 21.9461 30.5 21.349 31.2098C20.752 31.9196 20.502 32.9088 20.6863 33.9465L31.9799 97.8798C32.357 100.018 34.4081 101.751 36.5434 101.751H89.6566C90.675 101.751 91.5634 101.361 92.1604 100.651C92.7574 99.9409 93.0074 98.9517 92.8231 97.9126L81.5266 33.9779C81.1495 31.8398 79.0985 30.1052 76.9632 30.1052L23.8529 30.108Z" fill="#241A43"/>
<g style="mix-blend-mode:multiply" opacity="0.5">
<path d="M92.1704 98.8077H39.0558C36.869 98.8077 34.7822 97.0388 34.3966 94.8552L23.1001 30.9205C22.7145 28.7368 24.1742 26.9665 26.3624 26.9665H79.4755C81.6637 26.9665 83.7505 28.7368 84.1361 30.9205L95.4326 94.8552C95.8254 97.0388 94.3571 98.8077 92.1704 98.8077Z" fill="#1CC98A"/>
</g>
<path d="M94.6827 95.7674H41.5667C39.3785 95.7674 37.2918 93.9971 36.9061 91.8149L25.6096 27.8787C25.2239 25.6965 26.6851 23.9262 28.8719 23.9262H81.9865C84.1732 23.9262 86.26 25.6965 86.6456 27.8787L97.9421 91.8149C98.3278 93.9971 96.8666 95.7674 94.6827 95.7674Z" fill="white"/>
<path d="M94.6827 95.7674H41.5667C39.3785 95.7674 37.2918 93.9971 36.9061 91.8149L25.6096 27.8787C25.2239 25.6965 26.6851 23.9262 28.8719 23.9262H81.9865C84.1732 23.9262 86.26 25.6965 86.6456 27.8787L97.9421 91.8149C98.3278 93.9971 96.8666 95.7674 94.6827 95.7674Z" fill="white"/>
<path d="M87.1812 79.6294H43.2935C41.4867 79.6294 39.8041 78.3879 39.5356 76.8571L31.6714 32.0137C31.4028 30.4828 32.6512 29.2414 34.4594 29.2414H78.3457C80.1525 29.2414 81.8365 30.4828 82.105 32.0137L89.9607 76.8571C90.2364 78.3951 88.988 79.6294 87.1812 79.6294Z" fill="#F8F6F4"/>
<path d="M46.8973 84.966L46.8473 84.9233C46.5171 84.6452 46.1009 84.4891 45.6689 84.4814C44.7905 84.4814 44.2035 85.1941 44.3591 86.0678C44.2717 85.6318 44.0394 85.2381 43.6998 84.9502C43.3603 84.6623 42.9333 84.4971 42.4881 84.4814C42.2955 84.4765 42.1041 84.5135 41.9273 84.5898C41.7504 84.6661 41.5923 84.7799 41.4639 84.9233L41.4297 84.966C39.8585 86.8617 45.1561 90.5848 45.1561 90.5848C45.1561 90.5848 49.1454 86.8617 46.8973 84.966Z" fill="#5D5FEF"/>
<path d="M53.339 84.4814C51.6507 84.4814 50.5223 85.8469 50.8208 87.5331C51.1193 89.2193 52.7291 90.5848 54.4173 90.5848H57.4768L56.9369 87.5331C56.6398 85.8469 55.0287 84.4814 53.339 84.4814Z" fill="#241A43"/>
<path d="M73.9233 48.1949C74.7542 47.0988 73.8373 45.0093 71.8752 43.5279C69.9131 42.0465 67.6489 41.7342 66.8179 42.8303C65.9869 43.9264 66.9038 46.0159 68.8659 47.4973C70.828 48.9787 73.0923 49.291 73.9233 48.1949Z" fill="white"/>
<path fill-rule="evenodd" clip-rule="evenodd" d="M41.7367 60.5395C42.4509 62.2927 43.6163 63.8948 45.0332 65.266C46.018 66.2161 47.1054 67.0541 48.2755 67.7647L48.4412 67.8645C49.8683 68.7059 51.379 69.3976 52.9489 69.9284C53.8731 70.2477 54.8057 70.5185 55.747 70.7523C56.2626 70.882 56.7797 70.9988 57.2953 71.1072L57.331 71.1143C58.1651 71.2901 58.9997 71.4426 59.8348 71.5718C62.5852 72.0022 65.3688 72.1835 68.1519 72.1135C69.978 72.066 71.799 71.9008 73.6037 71.6189C73.8723 71.5775 74.1422 71.5319 74.4093 71.4849L74.9021 71.3937C75.0449 71.368 75.1792 71.3409 75.3163 71.3124C76.1812 71.1464 77.035 70.9274 77.873 70.6568C78.0244 70.6054 78.1758 70.5527 78.3257 70.4971C78.6114 70.3888 78.8971 70.2719 79.1742 70.1436L79.3384 70.0652C79.8264 69.8283 80.2803 69.5272 80.6882 69.1701L80.791 69.0789L80.8981 68.9777C81.2165 68.6711 81.5005 68.3308 81.7451 67.9628C83.0306 66.0343 83.182 63.4444 82.1408 60.9985C81.5694 59.6444 80.4639 58.1763 79.7126 57.5776C77.8487 56.1066 75.8048 55.8843 73.628 55.8957C71.4513 55.9071 69.3717 56.3404 67.2092 56.4202C65.0467 56.5 62.6886 56.1793 60.7204 54.8651C59.2706 53.8987 58.1651 52.4862 56.8354 51.3473C53.2875 48.3142 48.0813 47.583 44.6947 49.6369C41.3082 51.6909 40.0427 56.3789 41.7367 60.5395Z" fill="white"/>
<path d="M55.6785 56.9875C56.0813 56.8678 56.4898 56.7595 56.904 56.6654C57.0882 56.6241 57.2739 56.587 57.4581 56.5556C57.6138 56.5286 57.7709 56.5058 57.9266 56.4872C58.5994 57.5705 60.3448 58.7678 62.3101 58.7906C64.2755 58.8134 63.6556 56.7737 63.6556 56.7737C63.8513 56.8692 64.2055 57.0089 64.6797 57.1928L64.7597 57.2241H64.7768C66.408 57.8541 69.3331 58.9702 72.0741 60.5367C73.5995 61.4076 75.0735 62.4182 76.2262 63.5613L76.2605 63.5955C77.2603 64.5933 78.1258 65.5411 78.8557 66.3964H78.9357C78.9357 66.3964 79.2299 61.1952 76.8475 57.9553C74.465 54.7155 72.7868 52.8411 71.7055 51.1777C70.6243 49.5143 69.6159 47.8424 68.7061 44.3118C67.9277 41.2772 67.2207 40.4348 66.2108 39.6594C65.8538 39.3843 65.4324 39.2232 65.1068 38.9125C64.1726 38.0202 62.0302 36.3896 59.1907 36.7958C57.0811 37.098 55.9142 37.9361 54.9201 38.6673C53.6346 39.6052 52.8647 41.2515 52.6162 42.3305C51.7806 45.9951 54.143 53.5267 55.6785 56.9875Z" fill="#241A43"/>
<path fill-rule="evenodd" clip-rule="evenodd" d="M57.4581 56.5556C57.6138 56.5286 57.7709 56.5058 57.9266 56.4872C58.5993 57.5705 60.3447 58.7678 62.3101 58.7906C64.2754 58.8134 63.6555 56.7737 63.6555 56.7737C63.8512 56.8692 64.2054 57.0089 64.6796 57.1928L64.7596 57.2241H64.7768C66.4079 57.8541 69.3331 58.9702 72.074 60.5367C71.167 59.881 70.1515 59.1113 69.6102 58.5811C67.5377 56.5229 66.7021 55.2486 66.5179 52.7642C66.4422 51.7522 66.8692 50.2627 66.7593 49.2464C66.6964 48.6762 66.8764 47.945 66.2779 47.6557C65.8208 47.4333 64.8496 47.7212 64.3983 47.7469C63.3196 47.8287 62.2355 47.8039 61.1617 47.6728C60.0091 47.5103 59.0421 47.2665 57.928 47.4675C57.5452 47.5359 56.2669 48.2372 56.1355 48.1517C56.1955 49.5771 56.2126 51.0024 56.4597 52.4378C56.7068 53.8731 56.9053 55.3498 57.4581 56.5556Z" fill="#17132A"/>
<path d="M57.928 56.4887C58.6022 57.5719 60.3462 58.7692 62.3101 58.7906C63.8812 58.8091 63.8013 57.5078 63.7056 56.9875C63.6656 56.8193 63.6284 56.6526 63.5927 56.4872L63.5542 56.3091C63.5013 56.0625 63.4599 55.8273 63.4342 55.5964C63.4184 55.4638 63.407 55.3355 63.4013 55.2115C62.6354 55.033 61.8993 54.7449 61.216 54.3563C60.6585 54.0194 60.1327 53.633 59.6448 53.2018C58.4639 52.1556 57.5177 50.8723 56.8682 49.4359V49.4602C56.8682 49.4602 56.8682 49.4744 56.8682 49.483C56.8689 49.4853 56.8689 49.4878 56.8682 49.4901C56.8682 49.4901 56.8682 49.5044 56.8682 49.5129C56.8676 49.5176 56.8676 49.5224 56.8682 49.5272V49.5371C56.8675 49.5471 56.8675 49.5571 56.8682 49.5671C56.8796 49.6611 56.8954 49.8065 56.9182 49.9947C56.9411 50.1828 56.9639 50.3881 56.9953 50.6347C57.0324 50.9354 57.0767 51.2804 57.1253 51.6567C57.3353 53.0877 57.6109 54.9635 57.928 56.4887Z" fill="#FBE0DB"/>
<path d="M57.011 50.6233V50.6333C58.0879 54.1625 61.8187 56.9134 63.5812 56.4872L63.5427 56.3091C63.4619 55.9499 63.4107 55.5847 63.3898 55.2172C62.6239 55.0387 61.8879 54.7507 61.2045 54.362C60.6471 54.0251 60.1212 53.6387 59.6334 53.2075C58.4524 52.1613 57.5062 50.878 56.8567 49.4417V49.4616C56.8567 49.4702 56.8567 49.4773 56.8567 49.4844C56.8574 49.4867 56.8574 49.4892 56.8567 49.4915C56.8567 49.4915 56.8567 49.5072 56.8567 49.5143C56.8561 49.5191 56.8561 49.5239 56.8567 49.5286V49.5386C56.856 49.5485 56.856 49.5585 56.8567 49.5685C56.9524 50.1444 56.9196 49.9305 57.011 50.6233Z" fill="#F9D3CE"/>
<path d="M56.9323 49.9833V49.9933C59.9489 55.652 63.0883 55.622 63.4282 55.6021C63.4125 55.4695 63.4011 55.3412 63.3954 55.2172C62.6295 55.0387 61.8934 54.7507 61.2101 54.362C60.6526 54.0251 60.1268 53.6387 59.6389 53.2075C58.458 52.1613 57.5118 50.878 56.8623 49.4417V49.4516L56.9323 49.9833Z" fill="#F7C0BA"/>
<path d="M56.2954 47.7127C56.7567 49.7495 57.9865 51.728 59.6505 53.2061C60.1383 53.6373 60.6642 54.0237 61.2217 54.3606C62.38 55.0633 63.8012 55.5379 64.8796 55.0733C65.0314 55.0065 65.1751 54.9228 65.3081 54.8238C65.9351 54.3506 66.2822 53.5581 66.5264 52.7756C66.8307 51.7927 67.0322 50.781 67.1277 49.7567C67.1477 49.55 67.1634 49.3419 67.1749 49.1338C67.2452 47.8425 67.1671 46.5474 66.9421 45.2739C66.4693 44.2918 65.4123 43.5435 64.5225 42.7082C64.3511 42.5472 64.1868 42.3847 64.034 42.2151C63.6941 42.6512 62.8914 43.7687 61.7601 44.47C60.7003 45.1565 59.4986 45.595 58.245 45.7528C57.6052 45.8455 56.9067 45.9068 56.0654 45.9994L56.2954 47.7127Z" fill="#FBE0DB"/>
<path fill-rule="evenodd" clip-rule="evenodd" d="M59.7178 53.2645L59.6506 53.2061C59.6749 53.2274 59.6963 53.2474 59.7178 53.2645Z" fill="#F9D3CE"/>
<path fill-rule="evenodd" clip-rule="evenodd" d="M58.2366 45.7428C58.9993 45.7428 59.7334 45.6003 60.4576 45.4777C61.3874 45.3166 62.2915 45.1171 62.9828 44.5954C63.6284 44.1079 64.2683 43.4551 64.514 42.7025C64.4197 42.6142 64.3283 42.5258 64.2398 42.4346C64.1512 42.3433 64.0969 42.292 64.0255 42.2094C63.6856 42.6455 62.8828 43.763 61.7516 44.4643C61.4028 44.6806 61.0418 44.8766 60.6704 45.0515C59.8991 45.4041 59.0784 45.6372 58.2366 45.7428Z" fill="#F9D3CE"/>
<path fill-rule="evenodd" clip-rule="evenodd" d="M60.6704 45.0515C62.5715 44.9418 64.2269 42.4545 64.2412 42.4346C64.1683 42.3604 64.0983 42.292 64.0269 42.2094C63.687 42.6455 62.8843 43.763 61.753 44.4643C61.4038 44.6806 61.0423 44.8767 60.6704 45.0515Z" fill="#F7C0BA"/>
<path d="M54.8042 40.8225L64.9809 39.9174L66.5963 40.8168L68.7388 49.0425C67.7004 48.1218 67.5147 46.4854 66.9305 45.2696C66.3678 44.0994 64.9766 43.2627 64.0225 42.2093C63.6826 42.6455 62.8799 43.763 61.7486 44.4643C59.7047 45.7214 58.4721 45.7214 56.054 45.9894L54.8042 40.8225Z" fill="#241A43"/>
<path fill-rule="evenodd" clip-rule="evenodd" d="M45.0332 65.2661C46.018 66.2161 47.1054 67.0541 48.2755 67.7647L48.4412 67.8645C49.8683 68.7059 51.379 69.3976 52.9489 69.9284C53.873 70.2477 54.8057 70.5185 55.747 70.7523C56.2626 70.882 56.7796 70.9989 57.2953 71.1072L57.331 71.1143C58.1651 71.2901 58.9997 71.4426 59.8348 71.5719C62.5851 72.0022 65.3688 72.1835 68.1519 72.1135C69.9775 72.0661 71.7981 71.9009 73.6023 71.6189C73.8722 71.5776 74.1422 71.532 74.4093 71.4849L74.9021 71.3937C75.0449 71.368 75.1791 71.341 75.3163 71.3125C76.1811 71.1464 77.035 70.9274 77.873 70.6568C78.0244 70.6055 78.1757 70.5527 78.3257 70.4971C78.6114 70.3888 78.897 70.2719 79.1741 70.1437L79.3384 70.0653C79.8263 69.8283 80.2803 69.5273 80.6882 69.1701L80.791 69.0789L80.8981 68.9777C79.4929 67.0698 77.9424 65.2728 76.2604 63.6026L76.2261 63.5684C72.9853 60.3685 67.3149 58.2133 64.7768 57.2313H64.7596L64.6796 57.1999C64.2054 57.016 63.8512 56.8763 63.657 56.7808C63.657 56.7808 64.2769 58.822 62.3101 58.7977C60.3433 58.7735 58.5964 57.5776 57.9266 56.4929C57.5866 56.5357 57.2458 56.5955 56.9039 56.6725C52.4319 57.686 48.5369 60.3386 46.3516 63.1365C45.9723 63.6179 45.6332 64.1295 45.3375 64.666C45.2332 64.8541 45.1318 65.0537 45.0332 65.2661Z" fill="#1CC98A"/>
<path d="M56.501 46.1818C56.3795 46.0786 56.2316 46.0113 56.0739 45.9874C55.9161 45.9636 55.7548 45.9841 55.6082 46.0468C55.4615 46.1095 55.3353 46.2117 55.2437 46.3421C55.1521 46.4725 55.0989 46.6258 55.0899 46.7847C55.0629 47.1158 55.1219 47.4481 55.2612 47.7497C55.5645 48.4973 56.1408 49.102 56.8738 49.4416L56.501 46.1818Z" fill="#FBE0DB"/>
<g opacity="0.43">
<path opacity="0.43" d="M56.9038 56.6654C57.0599 56.9552 57.255 57.2223 57.4837 57.4593C58.535 58.58 59.8895 59.3722 61.383 59.7399C61.9972 59.8825 62.6299 59.9409 63.1898 59.7884C63.4802 59.7122 63.7505 59.5738 63.9819 59.3828C64.2133 59.1918 64.4002 58.9527 64.5296 58.6823C64.7368 58.2128 64.7893 57.6897 64.6795 57.1885C64.2053 57.0046 63.8511 56.865 63.6554 56.7695C63.6554 56.7695 64.2768 58.8106 62.31 58.7864C60.3432 58.7621 58.5963 57.5662 57.9265 56.4815C57.5865 56.5271 57.2457 56.5884 56.9038 56.6654Z" fill="#FBC86F"/>
</g>
<path d="M56.6526 47.3934C56.6464 47.3171 56.6246 47.2428 56.5883 47.1753C56.5514 47.1039 56.5032 47.0389 56.4455 46.9829C56.3834 46.9186 56.3071 46.8698 56.2227 46.8404C56.1802 46.8272 56.1356 46.8224 56.0913 46.8261C56.0505 46.8287 56.0107 46.8394 55.9741 46.8575C55.9416 46.8739 55.9113 46.8945 55.8842 46.9188C55.8706 46.9318 55.8577 46.9456 55.8456 46.9601L55.8313 46.9843C55.8252 46.9915 55.8204 46.9997 55.817 47.0086C55.7854 47.0747 55.7707 47.1477 55.7742 47.2209C55.7826 47.3642 55.817 47.5047 55.8756 47.6357C55.9317 47.7666 55.997 47.8933 56.0713 48.0149C56.1455 48.1393 56.2316 48.2562 56.3284 48.3641C56.5233 48.5773 56.7503 48.7591 57.0011 48.9029C57.004 48.9051 57.0073 48.9068 57.0109 48.9076C57.0145 48.9084 57.0182 48.9084 57.0217 48.9076C57.0253 48.9067 57.0286 48.9051 57.0315 48.9028C57.0344 48.9005 57.0367 48.8976 57.0382 48.8943C57.0407 48.888 57.0409 48.881 57.0388 48.8745C57.0367 48.868 57.0325 48.8624 57.0268 48.8587C56.9711 48.8173 56.914 48.776 56.8597 48.7318C56.8054 48.6876 56.7526 48.6434 56.7012 48.5964C56.5988 48.5047 56.5033 48.4056 56.4155 48.2999C56.3722 48.2474 56.3317 48.1927 56.2941 48.136C56.2555 48.0804 56.2198 48.0234 56.1855 47.965C56.1184 47.8491 56.0597 47.7286 56.0099 47.6044C55.9859 47.5458 55.9673 47.4852 55.9542 47.4233C55.9407 47.3659 55.934 47.307 55.9341 47.248C55.9353 47.1983 55.948 47.1495 55.9713 47.1055C55.9733 47.1003 55.9762 47.0954 55.9799 47.0912L55.9899 47.077C55.997 47.077 56.0056 47.0627 56.0127 47.0542C56.0317 47.0403 56.0518 47.0279 56.0727 47.0171C56.1136 47.0014 56.1589 47.0014 56.1998 47.0171C56.2494 47.035 56.2942 47.0638 56.3312 47.1012C56.3738 47.1442 56.4112 47.192 56.4426 47.2437C56.4756 47.2947 56.5047 47.3481 56.5297 47.4034C56.5372 47.4201 56.5502 47.4338 56.5666 47.4421C56.583 47.4504 56.6018 47.4529 56.6197 47.449C56.6303 47.4443 56.6392 47.4364 56.6451 47.4264C56.651 47.4165 56.6536 47.4049 56.6526 47.3934Z" fill="#F9D3CE"/>
<path d="M57.4379 42.8171C58.0511 42.1489 57.9006 41.0154 57.1019 40.2855C56.3031 39.5556 55.1585 39.5056 54.5453 40.1738C53.9321 40.8421 54.0826 41.9755 54.8814 42.7054C55.6802 43.4354 56.8248 43.4854 57.4379 42.8171Z" fill="#35295C"/>
<path d="M58.4436 39.0721C58.3912 38.9303 58.2919 38.8105 58.162 38.7327C58.0321 38.655 57.8795 38.6238 57.7294 38.6445C57.6624 38.6586 57.5994 38.6875 57.5451 38.7292C57.4908 38.7709 57.4467 38.8243 57.4159 38.8854C57.3852 38.9465 57.3686 39.0137 57.3675 39.0821C57.3664 39.1504 57.3807 39.2182 57.4095 39.2802C57.4622 39.4218 57.5617 39.5412 57.6914 39.6189C57.8212 39.6966 57.9736 39.728 58.1236 39.7078C58.1907 39.6938 58.2537 39.6648 58.308 39.6231C58.3622 39.5814 58.4064 39.528 58.4371 39.4669C58.4679 39.4058 58.4844 39.3386 58.4855 39.2703C58.4866 39.2019 58.4723 39.1342 58.4436 39.0721Z" fill="#35295C"/>
<path d="M78.6849 60.9925C79.356 60.2638 79.1939 59.0256 78.323 58.2269C77.452 57.4282 76.202 57.3715 75.531 58.1003C74.8599 58.829 75.022 60.0673 75.8929 60.8659C76.7638 61.6646 78.0139 61.7213 78.6849 60.9925Z" fill="#17132A"/>
<path d="M70.9726 58.1934C71.0112 58.389 71.1148 58.5658 71.2668 58.6952C71.4187 58.8246 71.61 58.8989 71.8097 58.9061C71.899 58.9094 71.9879 58.892 72.0694 58.8554C72.151 58.8187 72.2229 58.7637 72.2796 58.6947C72.3363 58.6257 72.3763 58.5446 72.3963 58.4576C72.4164 58.3706 72.416 58.2802 72.3952 58.1934C72.3567 57.9978 72.2531 57.821 72.1011 57.6916C71.9492 57.5622 71.7579 57.4879 71.5583 57.4807C71.4689 57.4774 71.38 57.4948 71.2984 57.5314C71.2169 57.5681 71.145 57.6231 71.0883 57.6921C71.0316 57.7611 70.9916 57.8422 70.9716 57.9292C70.9515 58.0162 70.9519 58.1066 70.9726 58.1934Z" fill="#17132A"/>
<path d="M45.0332 65.266C46.018 66.2161 47.1054 67.0541 48.2755 67.7647L48.4412 67.8645C49.8683 68.7059 51.379 69.3976 52.9489 69.9284C53.873 70.2477 54.8057 70.5185 55.747 70.7523C56.2626 70.882 56.7796 70.9988 57.2953 71.1072L57.331 71.1143C58.1651 71.2901 58.9997 71.4426 59.8348 71.5718C62.5851 72.0022 65.3688 72.1835 68.1519 72.1135C69.9775 72.0661 71.7981 71.9008 73.6023 71.6189C73.8722 71.5775 74.1422 71.5319 74.4093 71.4849L74.9021 71.3937C75.0449 71.368 75.1791 71.3409 75.3163 71.3124C76.1811 71.1464 77.035 70.9274 77.873 70.6568C78.0244 70.6054 78.1757 70.5527 78.3257 70.4971C78.6114 70.3888 78.897 70.2719 79.1741 70.1436L79.3384 70.0652C79.8263 69.8283 80.2803 69.5272 80.6882 69.1701L80.791 69.0789L80.8981 68.9777C79.4929 67.0698 77.9424 65.2728 76.2604 63.6026L76.2261 63.5684C75.5862 63.9305 75.3534 64.8769 74.7892 65.4C73.848 66.2709 72.4211 65.8348 71.1527 65.9203C69.6573 66.0229 68.2733 65.5197 66.8292 65.6894C65.3595 65.8618 64.3883 65.9017 62.9185 65.1691C61.1703 64.2996 58.935 62.384 57.1182 63.3632C56.3969 63.7509 55.8512 64.6104 54.9428 64.8228C54.2287 64.9895 52.2533 64.4906 51.4706 64.12C50.1366 63.4872 49.6309 62.6947 48.0798 62.8073C47.4935 62.8503 46.9139 62.9584 46.3516 63.1294C45.9723 63.6108 45.6332 64.1223 45.3375 64.6588C45.2332 64.8541 45.1318 65.0537 45.0332 65.266Z" fill="#0C5156"/>
<path d="M60.3562 46.7634C60.7728 46.7643 61.1873 46.7032 61.586 46.5824C62.1701 46.4067 62.6989 46.0837 63.1214 45.6445C63.5347 45.1971 63.8237 44.6498 63.9598 44.0566C64.1055 43.4283 64.1055 42.775 63.9598 42.1466H63.847C63.9898 42.759 63.9898 43.3958 63.847 44.0082C63.7197 44.5881 63.4376 45.1228 63.0305 45.5557C62.6233 45.9886 62.1064 46.3034 61.5345 46.4669C60.9295 46.6505 60.2905 46.6934 59.6663 46.5924C59.237 46.5139 58.8133 46.4072 58.398 46.2731C58.1537 46.2004 57.9023 46.1305 57.6524 46.0621C57.5253 46.0293 57.381 45.9851 57.2239 45.9395C57.0175 45.8717 56.8078 45.8146 56.5955 45.7685V45.8797C56.8029 45.9249 57.0078 45.9806 57.2096 46.0464C57.3639 46.0935 57.5095 46.1391 57.6381 46.1719C57.8838 46.2332 58.1337 46.3144 58.3766 46.38C58.7975 46.5159 59.2269 46.6239 59.662 46.7035C59.8915 46.7414 60.1236 46.7614 60.3562 46.7634Z" fill="#241A43"/>
<path d="M82.4621 62.1288C82.4164 61.1824 82.115 60.186 81.5637 59.1683C81.0295 58.2033 80.3675 57.3144 79.5955 56.5257C78.5186 55.4025 77.2773 54.4219 76.0776 53.474C75.5819 53.082 75.0692 52.6772 74.575 52.2681C73.7211 51.5758 72.9209 50.8201 72.1811 50.0075C71.4541 49.2189 70.8486 48.3268 70.3843 47.3606C70.0342 46.5512 69.751 45.7145 69.5373 44.8591C69.3631 44.1835 69.1538 43.5175 68.9103 42.8636C68.3275 41.3712 66.7849 39.5653 65.2152 39.1263L65.2024 39.2346C65.8994 39.4299 66.6621 39.9387 67.352 40.6671C67.9692 41.3108 68.4613 42.0633 68.8032 42.8864C69.0446 43.5349 69.2529 44.1952 69.4273 44.8648C69.6426 45.7275 69.9292 46.5709 70.2843 47.3863C70.7542 48.3648 71.367 49.2683 72.1025 50.0674C72.8479 50.8867 73.6539 51.649 74.5136 52.348C75.0092 52.757 75.5219 53.1633 76.0176 53.5552C77.2145 54.5003 78.4457 55.4781 79.5212 56.5941C80.2843 57.3737 80.9391 58.252 81.468 59.2054C82.0079 60.2031 82.305 61.1838 82.3507 62.1131L82.4621 62.1288Z" fill="#241A43"/>
<path d="M80.8725 65.6594C80.9225 64.4165 80.6268 62.9199 80.0155 61.3292C79.4577 59.867 78.6997 58.4888 77.7631 57.2341C76.859 56.0468 75.6377 54.9165 74.4579 53.8218C73.3467 52.7912 72.1969 51.7251 71.3257 50.6233L71.24 50.6831C72.117 51.7935 73.271 52.8639 74.3823 53.8973C75.5578 54.9877 76.7733 56.1138 77.6674 57.2911C78.5961 58.5354 79.3479 59.902 79.9013 61.352C80.504 62.9199 80.7968 64.408 80.7482 65.6281L80.8725 65.6594Z" fill="#241A43"/>
<path d="M183.624 125.957H34.0753C33.7865 125.957 33.5525 126.19 33.5525 126.478C33.5525 126.766 33.7865 127 34.0753 127H183.624C183.912 127 184.146 126.766 184.146 126.478C184.146 126.19 183.912 125.957 183.624 125.957Z" fill="#241A43"/>
<path d="M29.4403 125.957H22.1702C21.8815 125.957 21.6475 126.19 21.6475 126.478C21.6475 126.766 21.8815 127 22.1702 127H29.4403C29.729 127 29.9631 126.766 29.9631 126.478C29.9631 126.19 29.729 125.957 29.4403 125.957Z" fill="#241A43"/>
<path d="M17.5354 125.957H0.522762C0.234049 125.957 0 126.19 0 126.478C0 126.766 0.234049 127 0.522762 127H17.5354C17.8241 127 18.0581 126.766 18.0581 126.478C18.0581 126.19 17.8241 125.957 17.5354 125.957Z" fill="#241A43"/>
<path d="M195.477 125.957H188.207C187.918 125.957 187.684 126.19 187.684 126.478C187.684 126.766 187.918 127 188.207 127H195.477C195.766 127 196 126.766 196 126.478C196 126.19 195.766 125.957 195.477 125.957Z" fill="#241A43"/>
<path d="M150.479 121.441C150.821 121.208 150.908 120.742 150.675 120.401C150.441 120.06 149.974 119.973 149.633 120.206C149.291 120.439 149.203 120.905 149.437 121.246C149.67 121.587 150.137 121.675 150.479 121.441Z" fill="#1CC98A"/>
<path d="M156.219 111.304C157.668 111.707 158.53 113.157 158.53 113.157C158.53 113.157 157.04 113.954 155.589 113.549C154.138 113.144 153.278 111.696 153.278 111.696C153.278 111.696 154.769 110.893 156.219 111.304Z" fill="#1CC98A"/>
<path d="M157.15 107.187C158.679 106.566 160.403 107.247 160.403 107.247C160.403 107.247 159.648 108.936 158.118 109.558C156.588 110.179 154.863 109.498 154.863 109.498C154.863 109.498 155.62 107.815 157.15 107.187Z" fill="url(#paint0_linear_318_1588)"/>
<path d="M22.7417 88.5494C22.6937 88.6894 22.6051 88.812 22.4872 88.9018C22.3693 88.9915 22.2274 89.0444 22.0795 89.0537C21.9315 89.063 21.784 89.0283 21.6558 88.954C21.5276 88.8797 21.4243 88.7691 21.359 88.6363C21.2938 88.5034 21.2694 88.3542 21.2891 88.2075C21.3088 88.0609 21.3716 87.9233 21.4696 87.8123C21.5676 87.7012 21.6963 87.6217 21.8396 87.5837C21.9829 87.5456 22.1343 87.5509 22.2747 87.5987C22.4628 87.6632 22.6176 87.7995 22.7051 87.9777C22.7927 88.1559 22.8058 88.3615 22.7417 88.5494Z" fill="#1CC98A"/>
<path d="M49.2623 14.0427C50.1607 15.9042 49.4422 18.1107 49.4422 18.1107C49.4422 18.1107 47.264 17.2982 46.3642 15.4367C45.4644 13.5752 46.1842 11.3701 46.1842 11.3701C46.1842 11.3701 48.3681 12.1812 49.2623 14.0427Z" fill="#1CC98A"/>
<path d="M44.1448 15.8216C46.1145 16.4615 47.2128 18.5055 47.2128 18.5055C47.2128 18.5055 45.119 19.5133 43.1493 18.8747C41.1797 18.2361 40.0813 16.1907 40.0813 16.1907C40.0813 16.1907 42.1752 15.1773 44.1448 15.8216Z" fill="url(#paint1_linear_318_1588)"/>
<path d="M80.2884 0.997767C80.2403 1.13775 80.1517 1.26037 80.0339 1.35013C79.916 1.43989 79.7741 1.49276 79.6261 1.50206C79.4781 1.51135 79.3307 1.47666 79.2024 1.40236C79.0742 1.32806 78.971 1.21749 78.9057 1.08463C78.8404 0.951763 78.8161 0.802572 78.8357 0.655911C78.8554 0.509249 78.9182 0.371703 79.0162 0.260656C79.1142 0.149608 79.243 0.0700379 79.3863 0.032018C79.5296 -0.006002 79.681 -0.00076626 79.8213 0.0470511C79.9145 0.0788286 80.0006 0.128634 80.0746 0.193624C80.1485 0.258614 80.2089 0.337508 80.2523 0.425803C80.2957 0.514098 80.3212 0.610064 80.3274 0.708205C80.3336 0.806346 80.3203 0.904741 80.2884 0.997767Z" fill="#1CC98A"/>
<path d="M170.3 47.0917C170.401 46.691 170.158 46.284 169.756 46.1827C169.355 46.0814 168.947 46.3241 168.846 46.7248C168.744 47.1254 168.987 47.5324 169.389 47.6337C169.79 47.735 170.198 47.4923 170.3 47.0917Z" fill="#1CC98A"/>
<path d="M63.8675 110.862C63.9772 110.463 63.7425 110.051 63.3432 109.942C62.9439 109.832 62.5312 110.066 62.4214 110.465C62.3116 110.863 62.5464 111.275 62.9457 111.385C63.345 111.494 63.7577 111.26 63.8675 110.862Z" fill="#1CC98A"/>
</g>
<defs>
<linearGradient id="paint0_linear_318_1588" x1="159.295" y1="107.947" x2="159.032" y2="110.672" gradientUnits="userSpaceOnUse">
<stop stop-color="#169A76"/>
<stop offset="1" stop-color="#0C5156"/>
</linearGradient>
<linearGradient id="paint1_linear_318_1588" x1="45.7865" y1="16.8346" x2="45.4909" y2="20.1155" gradientUnits="userSpaceOnUse">
<stop stop-color="#169A76"/>
<stop offset="1" stop-color="#0C5156"/>
</linearGradient>
<clipPath id="clip0_318_1588">
<rect width="196" height="127" fill="white"/>
</clipPath>
</defs>
</svg>
